<mxfile host="app.diagrams.net" modified="2024-04-12T17:00:11.088Z" agent="Mozilla/5.0 (Windows NT 10.0; Win64; x64) AppleWebKit/537.36 (KHTML, like Gecko) Chrome/123.0.0.0 Safari/537.36" etag="3jTC19bNtYeqjbIeQGWF" version="24.2.3" type="device">
  <diagram name="Page-1" id="SFSKUDevAG4CQpZo2yAp">
    <mxGraphModel dx="1050" dy="564" grid="1" gridSize="10" guides="1" tooltips="1" connect="1" arrows="1" fold="1" page="1" pageScale="1" pageWidth="827" pageHeight="1169" math="0" shadow="0">
      <root>
        <mxCell id="0" />
        <mxCell id="1" parent="0" />
        <mxCell id="Hix7VjETpOglWaqQhVxC-1" value="" style="rounded=0;whiteSpace=wrap;html=1;" parent="1" vertex="1">
          <mxGeometry x="10" y="10" width="240" height="330" as="geometry" />
        </mxCell>
        <mxCell id="Hix7VjETpOglWaqQhVxC-3" value="CLIENT LAYER" style="text;html=1;align=center;verticalAlign=middle;whiteSpace=wrap;rounded=0;fillColor=#f8cecc;strokeColor=#b85450;" parent="1" vertex="1">
          <mxGeometry x="10" y="10" width="110" height="30" as="geometry" />
        </mxCell>
        <mxCell id="Hix7VjETpOglWaqQhVxC-33" value="" style="edgeStyle=orthogonalEdgeStyle;rounded=0;orthogonalLoop=1;jettySize=auto;html=1;entryX=0.5;entryY=1;entryDx=0;entryDy=0;" parent="1" source="Hix7VjETpOglWaqQhVxC-5" target="Hix7VjETpOglWaqQhVxC-22" edge="1">
          <mxGeometry relative="1" as="geometry">
            <mxPoint x="135" y="255" as="targetPoint" />
          </mxGeometry>
        </mxCell>
        <mxCell id="Hix7VjETpOglWaqQhVxC-5" value="HTML5/CSS3/BOOTSTRAP/&lt;div&gt;JAVASCRIPT/CHART.JS&lt;/div&gt;" style="ellipse;whiteSpace=wrap;html=1;" parent="1" vertex="1">
          <mxGeometry x="30.619999999999997" y="240" width="186.25" height="70" as="geometry" />
        </mxCell>
        <mxCell id="Hix7VjETpOglWaqQhVxC-17" value="" style="edgeStyle=orthogonalEdgeStyle;rounded=0;orthogonalLoop=1;jettySize=auto;html=1;" parent="1" source="Hix7VjETpOglWaqQhVxC-14" target="Hix7VjETpOglWaqQhVxC-15" edge="1">
          <mxGeometry relative="1" as="geometry" />
        </mxCell>
        <mxCell id="Hix7VjETpOglWaqQhVxC-14" value="" style="shape=actor;whiteSpace=wrap;html=1;" parent="1" vertex="1">
          <mxGeometry x="15" y="60" width="20" height="30" as="geometry" />
        </mxCell>
        <mxCell id="Hix7VjETpOglWaqQhVxC-23" value="" style="edgeStyle=orthogonalEdgeStyle;rounded=0;orthogonalLoop=1;jettySize=auto;html=1;" parent="1" source="Hix7VjETpOglWaqQhVxC-15" target="Hix7VjETpOglWaqQhVxC-22" edge="1">
          <mxGeometry relative="1" as="geometry" />
        </mxCell>
        <mxCell id="Hix7VjETpOglWaqQhVxC-15" value="" style="image;html=1;image=img/lib/clip_art/computers/Laptop_128x128.png" parent="1" vertex="1">
          <mxGeometry x="95" y="55" width="57.5" height="40" as="geometry" />
        </mxCell>
        <mxCell id="Hix7VjETpOglWaqQhVxC-29" value="" style="rounded=0;whiteSpace=wrap;html=1;" parent="1" vertex="1">
          <mxGeometry x="390" y="10" width="540" height="330" as="geometry" />
        </mxCell>
        <mxCell id="Hix7VjETpOglWaqQhVxC-22" value="WEB BROWSER" style="rounded=1;whiteSpace=wrap;html=1;movable=1;resizable=1;rotatable=1;deletable=1;editable=1;locked=0;connectable=1;" parent="1" vertex="1">
          <mxGeometry x="63.75" y="132.5" width="120" height="60" as="geometry" />
        </mxCell>
        <mxCell id="Hix7VjETpOglWaqQhVxC-24" value="" style="rounded=0;whiteSpace=wrap;html=1;" parent="1" vertex="1">
          <mxGeometry x="414" y="57.5" width="176" height="262.5" as="geometry" />
        </mxCell>
        <mxCell id="Hix7VjETpOglWaqQhVxC-25" value="SERVER" style="text;html=1;align=center;verticalAlign=middle;whiteSpace=wrap;rounded=0;fillColor=#f8cecc;strokeColor=#b85450;" parent="1" vertex="1">
          <mxGeometry x="414" y="57.5" width="60" height="30" as="geometry" />
        </mxCell>
        <mxCell id="Hix7VjETpOglWaqQhVxC-36" value="" style="rounded=0;whiteSpace=wrap;html=1;" parent="1" vertex="1">
          <mxGeometry x="680" y="55" width="228" height="265" as="geometry" />
        </mxCell>
        <mxCell id="Hix7VjETpOglWaqQhVxC-60" value="" style="edgeStyle=orthogonalEdgeStyle;rounded=0;orthogonalLoop=1;jettySize=auto;html=1;" parent="1" source="Hix7VjETpOglWaqQhVxC-26" target="Hix7VjETpOglWaqQhVxC-43" edge="1">
          <mxGeometry relative="1" as="geometry">
            <Array as="points">
              <mxPoint x="800" y="190" />
              <mxPoint x="800" y="190" />
            </Array>
          </mxGeometry>
        </mxCell>
        <mxCell id="Hix7VjETpOglWaqQhVxC-26" value="" style="image;aspect=fixed;perimeter=ellipsePerimeter;html=1;align=center;shadow=0;dashed=0;spacingTop=3;image=img/lib/active_directory/database.svg;" parent="1" vertex="1">
          <mxGeometry x="779.3199999999999" y="220" width="67.57" height="50" as="geometry" />
        </mxCell>
        <mxCell id="Hix7VjETpOglWaqQhVxC-28" value="" style="image;html=1;image=img/lib/clip_art/computers/Server_128x128.png" parent="1" vertex="1">
          <mxGeometry x="460.5" y="110" width="76.5" height="50" as="geometry" />
        </mxCell>
        <mxCell id="Hix7VjETpOglWaqQhVxC-35" value="XAMPP" style="text;html=1;align=center;verticalAlign=middle;whiteSpace=wrap;rounded=0;fillColor=#fad9d5;strokeColor=#ae4132;" parent="1" vertex="1">
          <mxGeometry x="390" y="10" width="60" height="30" as="geometry" />
        </mxCell>
        <mxCell id="Hix7VjETpOglWaqQhVxC-37" value="DATABASE" style="text;html=1;align=center;verticalAlign=middle;whiteSpace=wrap;rounded=0;fillColor=#fad9d5;strokeColor=#ae4132;" parent="1" vertex="1">
          <mxGeometry x="680" y="55" width="78" height="30" as="geometry" />
        </mxCell>
        <mxCell id="Hix7VjETpOglWaqQhVxC-54" value="" style="edgeStyle=orthogonalEdgeStyle;rounded=0;orthogonalLoop=1;jettySize=auto;html=1;" parent="1" edge="1">
          <mxGeometry relative="1" as="geometry">
            <mxPoint x="490" y="238.75" as="sourcePoint" />
            <mxPoint x="490.04999999999995" y="158.75" as="targetPoint" />
          </mxGeometry>
        </mxCell>
        <mxCell id="Hix7VjETpOglWaqQhVxC-42" value="LARAVEL/PHP" style="ellipse;whiteSpace=wrap;html=1;" parent="1" vertex="1">
          <mxGeometry x="453.75" y="240" width="90" height="57.5" as="geometry" />
        </mxCell>
        <mxCell id="Hix7VjETpOglWaqQhVxC-43" value="MySQL" style="ellipse;whiteSpace=wrap;html=1;" parent="1" vertex="1">
          <mxGeometry x="770" y="106.25" width="86.21" height="53.75" as="geometry" />
        </mxCell>
        <mxCell id="Hix7VjETpOglWaqQhVxC-46" value="" style="endArrow=classic;html=1;rounded=0;exitX=1;exitY=0.5;exitDx=0;exitDy=0;entryX=0;entryY=0.25;entryDx=0;entryDy=0;" parent="1" source="Hix7VjETpOglWaqQhVxC-22" target="Hix7VjETpOglWaqQhVxC-28" edge="1">
          <mxGeometry width="50" height="50" relative="1" as="geometry">
            <mxPoint x="243.75" y="110.00354005167958" as="sourcePoint" />
            <mxPoint x="480" y="140" as="targetPoint" />
            <Array as="points">
              <mxPoint x="330" y="163" />
              <mxPoint x="330" y="123" />
            </Array>
          </mxGeometry>
        </mxCell>
        <mxCell id="Hix7VjETpOglWaqQhVxC-47" value="REQUEST" style="edgeLabel;html=1;align=center;verticalAlign=middle;resizable=0;points=[];" parent="Hix7VjETpOglWaqQhVxC-46" vertex="1" connectable="0">
          <mxGeometry x="0.6178" y="4" relative="1" as="geometry">
            <mxPoint x="-60" y="1" as="offset" />
          </mxGeometry>
        </mxCell>
        <mxCell id="Hix7VjETpOglWaqQhVxC-50" value="" style="endArrow=classic;html=1;rounded=0;entryX=1;entryY=0.5;entryDx=0;entryDy=0;exitX=0;exitY=0.75;exitDx=0;exitDy=0;" parent="1" source="Hix7VjETpOglWaqQhVxC-28" target="Hix7VjETpOglWaqQhVxC-5" edge="1">
          <mxGeometry width="50" height="50" relative="1" as="geometry">
            <mxPoint x="491.64" y="149.99976679369772" as="sourcePoint" />
            <mxPoint x="249.9962499999998" y="179.93000000000004" as="targetPoint" />
            <Array as="points">
              <mxPoint x="360" y="148" />
              <mxPoint x="360" y="275" />
            </Array>
          </mxGeometry>
        </mxCell>
        <mxCell id="Hix7VjETpOglWaqQhVxC-51" value="RESPONE" style="edgeLabel;html=1;align=center;verticalAlign=middle;resizable=0;points=[];" parent="1" vertex="1" connectable="0">
          <mxGeometry x="330" y="275" as="geometry">
            <mxPoint x="-24" y="-1" as="offset" />
          </mxGeometry>
        </mxCell>
        <mxCell id="Hix7VjETpOglWaqQhVxC-55" value="" style="endArrow=classic;html=1;rounded=0;exitX=0.5;exitY=1;exitDx=0;exitDy=0;" parent="1" source="Hix7VjETpOglWaqQhVxC-28" target="Hix7VjETpOglWaqQhVxC-42" edge="1">
          <mxGeometry width="50" height="50" relative="1" as="geometry">
            <mxPoint x="500" y="230" as="sourcePoint" />
            <mxPoint x="550" y="180" as="targetPoint" />
          </mxGeometry>
        </mxCell>
        <mxCell id="Hix7VjETpOglWaqQhVxC-57" value="" style="endArrow=classic;html=1;rounded=0;entryX=-0.047;entryY=0.368;entryDx=0;entryDy=0;entryPerimeter=0;" parent="1" edge="1">
          <mxGeometry width="50" height="50" relative="1" as="geometry">
            <mxPoint x="540" y="128" as="sourcePoint" />
            <mxPoint x="767" y="128" as="targetPoint" />
          </mxGeometry>
        </mxCell>
        <mxCell id="Hix7VjETpOglWaqQhVxC-58" value="" style="endArrow=classic;html=1;rounded=0;" parent="1" edge="1">
          <mxGeometry width="50" height="50" relative="1" as="geometry">
            <mxPoint x="770" y="140" as="sourcePoint" />
            <mxPoint x="540" y="140" as="targetPoint" />
          </mxGeometry>
        </mxCell>
        <mxCell id="Hix7VjETpOglWaqQhVxC-62" value="" style="edgeStyle=none;orthogonalLoop=1;jettySize=auto;html=1;rounded=0;entryX=0.75;entryY=0;entryDx=0;entryDy=0;exitX=0.65;exitY=0.963;exitDx=0;exitDy=0;exitPerimeter=0;" parent="1" edge="1">
          <mxGeometry width="100" relative="1" as="geometry">
            <mxPoint x="812.3364999999999" y="160.00125000000003" as="sourcePoint" />
            <mxPoint x="813.8653718587827" y="224.39566897065174" as="targetPoint" />
            <Array as="points" />
          </mxGeometry>
        </mxCell>
        <mxCell id="Hix7VjETpOglWaqQhVxC-63" value="DATA STOARAGE" style="text;html=1;align=center;verticalAlign=middle;whiteSpace=wrap;rounded=0;" parent="1" vertex="1">
          <mxGeometry x="600" y="95" width="60" height="30" as="geometry" />
        </mxCell>
        <mxCell id="Hix7VjETpOglWaqQhVxC-64" value="RETRIEVAL" style="text;html=1;align=center;verticalAlign=middle;whiteSpace=wrap;rounded=0;" parent="1" vertex="1">
          <mxGeometry x="600" y="140" width="60" height="30" as="geometry" />
        </mxCell>
      </root>
    </mxGraphModel>
  </diagram>
</mxfile>
